<svg width="169" height="26" viewBox="0 0 169 26" fill="none" xmlns="http://www.w3.org/2000/svg">
<g clip-path="url(#clip0_3125_179)">
<path d="M155.387 25.9574C147.806 25.9574 142.273 20.3964 142.273 12.9936C142.273 5.55476 147.806 0.0297852 155.387 0.0297852C162.967 0.0297852 168.5 5.55476 168.5 12.9936C168.5 20.3964 162.967 25.9574 155.387 25.9574ZM147.842 12.9936C147.842 17.6519 151.291 20.6852 155.387 20.6852C159.482 20.6852 162.931 17.6519 162.931 12.9936C162.931 8.3353 159.482 5.30198 155.387 5.30198C151.291 5.30198 147.842 8.3353 147.842 12.9936Z" fill="currentColor"/>
<path d="M127.169 0C132.645 0 137.077 2.89695 138.914 7.27857L134.122 9.84959C132.969 7.02507 130.267 5.35928 127.169 5.35928C123.062 5.35929 119.603 8.29245 119.603 13C119.603 17.7075 123.062 20.6406 127.169 20.6406C129.451 20.6406 131.518 19.7439 132.92 18.14L129.063 14.2632H140.267V25.5248L136.777 22.0166C134.479 24.4934 131.103 26 127.169 26C119.567 26 114.019 20.4233 114.019 13C114.019 5.54036 119.567 1.18876e-05 127.169 0Z" fill="currentColor"/>
<path d="M90.176 25.5743L98.3315 0.296631H105.84L113.96 25.5743H108.319L106.595 20.1215H97.4692L95.7447 25.5743H90.176ZM99.05 15.066H105.014L102.032 5.60494L99.05 15.066Z" fill="currentColor"/>
<path d="M62.4444 25.5743L54.4043 0.296631H60.1167L66.0731 17.7743L69.9891 0.296631H76.8153L80.8032 17.7743L86.7236 0.296631H92.472L84.36 25.5743H77.426L73.4381 7.55493L69.3424 25.5743H62.4444Z" fill="currentColor"/>
<path d="M41.8688 25.9574C34.2882 25.9574 28.7554 20.3964 28.7554 12.9936C28.7554 5.55476 34.2882 0.0297852 41.8688 0.0297852C49.4494 0.0297852 54.9822 5.55476 54.9822 12.9936C54.9822 20.3964 49.4494 25.9574 41.8688 25.9574ZM34.3241 12.9936C34.3241 17.6519 37.7731 20.6852 41.8688 20.6852C45.9645 20.6852 49.4135 17.6519 49.4135 12.9936C49.4135 8.3353 45.9645 5.30198 41.8688 5.30198C37.7731 5.30198 34.3241 8.3353 34.3241 12.9936Z" fill="currentColor"/>
<path d="M13.65 0C19.1262 0 23.5576 2.89695 25.395 7.27857L20.6033 9.84959C19.4504 7.02507 16.7484 5.35928 13.65 5.35928C9.54293 5.35929 6.08427 8.29245 6.08425 13C6.08425 17.7075 9.54292 20.6406 13.65 20.6406C15.9318 20.6406 17.9993 19.7439 19.4009 18.14L15.5438 14.2632H26.7482V25.5248L23.2578 22.0166C20.9604 24.4934 17.5841 26 13.65 26C6.04825 26 0.5 20.4233 0.5 13C0.500014 5.54036 6.04826 1.18876e-05 13.65 0Z" fill="currentColor"/>
</g>
<defs>
<clipPath id="clip0_3125_179">
<rect width="169" height="26" fill="white"/>
</clipPath>
</defs>
</svg>
